<svg width="98" height="98" viewBox="0 0 98 98" fill="none" xmlns="http://www.w3.org/2000/svg">
<path d="M72.9227 7.56475L96.8453 49L72.9226 90.4353L25.0774 90.4353L1.15471 49L25.0774 7.56475L72.9227 7.56475Z" stroke="#CCCCCC" stroke-width="2"/>
<g clip-path="url(#clip0_20536_2142)">
<path d="M53.9689 43.8639V41.0884C53.9689 40.6721 53.6889 40.3945 53.2689 40.3945H44.8689C44.4489 40.3945 44.1689 40.6721 44.1689 41.0884V43.8639C44.1689 44.2802 44.4489 44.5578 44.8689 44.5578H53.2689C53.6889 44.5578 53.9689 44.2802 53.9689 43.8639ZM52.5689 43.17H45.5689V41.7823H52.5689V43.17Z" fill="#CCCCCC"/>
<path d="M41.3689 57.7412C39.8289 57.7412 38.5688 58.9902 38.5688 60.5167C38.5688 62.0433 39.8289 63.2922 41.3689 63.2922C42.9089 63.2922 44.1689 62.0433 44.1689 60.5167C44.1689 58.9902 42.9089 57.7412 41.3689 57.7412ZM41.3689 61.9045C40.5989 61.9045 39.9689 61.28 39.9689 60.5167C39.9689 59.7535 40.5989 59.129 41.3689 59.129C42.1389 59.129 42.7689 59.7535 42.7689 60.5167C42.7689 61.28 42.1389 61.9045 41.3689 61.9045Z" fill="#CCCCCC"/>
<path d="M56.7688 57.7412C55.2288 57.7412 53.9688 58.9902 53.9688 60.5167C53.9688 62.0433 55.2288 63.2922 56.7688 63.2922C58.3088 63.2922 59.5688 62.0433 59.5688 60.5167C59.5688 58.9902 58.3088 57.7412 56.7688 57.7412ZM56.7688 61.9045C55.9988 61.9045 55.3688 61.28 55.3688 60.5167C55.3688 59.7535 55.9988 59.129 56.7688 59.129C57.5388 59.129 58.1688 59.7535 58.1688 60.5167C58.1688 61.28 57.5388 61.9045 56.7688 61.9045Z" fill="#CCCCCC"/>
<path d="M56.6989 46.2921C56.8389 46.0145 56.7689 45.737 56.5589 45.4594C56.3489 45.1819 55.9989 45.1819 55.7189 45.3206L52.3589 47.3329C51.1689 48.0268 49.9089 48.6513 48.7189 49.2064C48.3689 49.3451 47.9489 49.5533 47.5289 49.7615C46.0589 50.5247 45.2889 52.1206 45.6389 53.7166C45.9189 54.9655 46.9689 56.0063 48.2289 56.2839C48.5089 56.3533 48.7889 56.3533 49.0689 56.3533C50.3989 56.3533 51.5889 55.59 52.2189 54.4104C52.3589 54.0635 52.5689 53.6472 52.7789 53.2308C53.4089 52.0513 53.9689 50.8023 54.6689 49.6227L56.6989 46.2921ZM53.4789 48.8594C52.7089 50.1084 52.0789 51.3574 51.5189 52.6064C51.3789 53.0227 51.1689 53.3696 50.9589 53.7859C50.5389 54.688 49.5589 55.1043 48.5789 54.8961C47.8089 54.7574 47.1789 54.1329 47.0389 53.3696C46.8289 52.3982 47.2489 51.4268 48.1589 51.0104C48.5089 50.8023 48.9289 50.6635 49.3489 50.4553C50.6089 49.8308 51.9389 49.2064 53.1289 48.5125L54.0389 47.9574L53.4789 48.8594Z" fill="#CCCCCC"/>
<path d="M68.5693 45.182C68.5604 45.135 68.5474 45.0888 68.5289 45.0439C68.5103 44.9983 68.487 44.9568 68.4602 44.9187C67.4116 42.4289 65.8874 40.1813 64.0022 38.286C63.9754 38.2466 63.9445 38.2092 63.9088 38.1738C63.8732 38.1384 63.8354 38.1078 63.7956 38.0813C59.9978 34.369 54.7917 32.0684 49.0688 32.0684C46.3272 32.0684 43.7049 32.5969 41.2982 33.5548C41.2508 33.5636 41.2041 33.5765 41.1588 33.5949C41.1136 33.6133 41.071 33.6364 41.0326 33.6629C38.5208 34.7024 36.2534 36.2133 34.3414 38.082C34.3016 38.1085 34.2638 38.1391 34.2282 38.1745C34.1925 38.2099 34.1616 38.2473 34.1348 38.2867C30.3898 42.0514 28.0688 47.2119 28.0688 52.8847C28.0688 57.6031 29.6088 62.1133 32.6188 65.7908C32.7588 65.999 32.9688 66.0684 33.1788 66.0684H64.9588C65.1688 66.0684 65.3788 65.999 65.5189 65.7908C68.5289 62.1133 70.0689 57.6031 70.0689 52.8847C70.0689 50.1677 69.5356 47.5677 68.5693 45.182ZM64.6789 64.6806H33.5288C32.5825 63.4704 31.796 62.1724 31.1749 60.8085L33.1088 60.0316C33.4588 59.8929 33.5988 59.4765 33.4588 59.1296C33.3188 58.7826 32.8988 58.6439 32.5488 58.7826L30.6534 59.5445C29.9499 57.6466 29.5546 55.6398 29.4819 53.5786H34.3688C34.7888 53.5786 35.0688 53.301 35.0688 52.8847C35.0688 52.4684 34.7888 52.1908 34.3688 52.1908H29.4826C29.5608 50.0031 30.0089 47.9044 30.7659 45.9548L32.6882 46.7786C32.7582 46.848 32.8982 46.848 32.9682 46.848C33.2482 46.848 33.4582 46.7092 33.5982 46.4316C33.7382 46.0847 33.5982 45.6684 33.2482 45.5296L31.3067 44.6969C32.1844 42.8405 33.3497 41.1418 34.7456 39.6582L36.1888 41.0888C36.3288 41.2275 36.4688 41.2969 36.6788 41.2969C36.8888 41.2969 37.0288 41.2275 37.1688 41.0888C37.4488 40.8112 37.4488 40.3949 37.1688 40.1173L35.7256 38.6867C37.2937 37.2371 39.0993 36.0377 41.0779 35.1548L41.8588 37.0643C41.9288 37.3418 42.2088 37.4806 42.4888 37.4806C42.5588 37.4806 42.6288 37.4806 42.7688 37.4112C43.1188 37.2724 43.2588 36.8561 43.1188 36.5092L42.3537 34.6377C44.2423 33.9493 46.2647 33.5439 48.3688 33.4697V38.3133C48.3688 38.7296 48.6488 39.0071 49.0688 39.0071C49.4888 39.0071 49.7689 38.7296 49.7689 38.3133V33.4697C51.9759 33.5473 54.0931 33.9915 56.0599 34.7425L55.2288 36.648C55.0889 36.9949 55.2288 37.4112 55.5788 37.55C55.6488 37.6194 55.7888 37.6194 55.8588 37.6194C56.1388 37.6194 56.4188 37.4112 56.4888 37.2031L57.3288 35.2786C59.2017 36.1486 60.9153 37.3037 62.4121 38.6874L60.9688 40.118C60.6889 40.3956 60.6889 40.8119 60.9688 41.0894C61.1088 41.2282 61.2489 41.2976 61.4589 41.2976C61.5989 41.2976 61.8088 41.2282 61.9488 41.0894L63.3921 39.6588C64.8545 41.2133 66.0651 43.0031 66.9552 44.9643L65.0289 45.7384C64.6788 45.8772 64.5389 46.2935 64.6789 46.6405C64.7489 46.918 65.0289 47.0568 65.3088 47.0568C65.3788 47.0568 65.4488 46.9874 65.5888 46.9874L67.4768 46.2289C68.1713 48.101 68.5803 50.1058 68.6551 52.1915H63.7688C63.3489 52.1915 63.0688 52.469 63.0688 52.8854C63.0688 53.3017 63.3489 53.5792 63.7688 53.5792H68.6558C68.5796 55.7418 68.1493 57.8439 67.391 59.8241L65.4488 58.9915C65.0989 58.8527 64.6788 58.9915 64.5388 59.3384C64.3988 59.6854 64.5389 60.1017 64.8889 60.2405L66.8557 61.084C66.2662 62.3466 65.5388 63.552 64.6789 64.6806Z" fill="#CCCCCC"/>
</g>
<defs>
<clipPath id="clip0_20536_2142">
<rect width="42" height="34" fill="white" transform="translate(28 32)"/>
</clipPath>
</defs>
</svg>
