<svg width="98" height="98" viewBox="0 0 98 98" fill="none" xmlns="http://www.w3.org/2000/svg">
<path d="M72.9227 7.56475L96.8453 49L72.9226 90.4353L25.0774 90.4353L1.15471 49L25.0774 7.56475L72.9227 7.56475Z" stroke="#CCCCCC" stroke-width="2"/>
<g clip-path="url(#clip0_20536_2144)">
<path d="M55.2303 37.8952C53.3273 35.9794 50.7973 34.9238 48.1056 34.9238C45.4144 34.9238 42.8838 35.9794 40.9808 37.8952C37.0526 41.8499 37.0526 48.2854 40.9808 52.2401C42.8838 54.1559 45.4144 55.2115 48.1056 55.2115C50.7967 55.2115 53.3267 54.1565 55.2303 52.2401C59.1579 48.2854 59.1579 41.8499 55.2303 37.8952ZM54.3691 51.3745C52.6961 53.059 50.472 53.9867 48.1061 53.9867C45.7403 53.9867 43.5161 53.059 41.8432 51.3745C38.3891 47.8967 38.3891 42.238 41.8432 38.7602C43.5161 37.0757 45.7403 36.148 48.1061 36.148C50.472 36.148 52.6961 37.0757 54.3691 38.7602C57.8226 42.238 57.8226 47.8967 54.3691 51.3745Z" fill="#CCCCCC"/>
<path d="M53.3449 39.7934C51.9455 38.3841 50.0849 37.6084 48.1061 37.6084C46.1272 37.6084 44.2661 38.3847 42.8666 39.7934C42.629 40.0325 42.629 40.4206 42.8672 40.6596C43.1049 40.8987 43.4908 40.8987 43.7284 40.659C44.8978 39.4816 46.4525 38.8331 48.1061 38.8331C49.7596 38.8331 51.3143 39.4816 52.4837 40.659C52.6025 40.7785 52.7584 40.8389 52.9143 40.8389C53.0702 40.8389 53.2255 40.7791 53.3449 40.6596C53.5825 40.4206 53.5825 40.033 53.3449 39.7934Z" fill="#CCCCCC"/>
<path d="M44.3729 62.1738H31.6088C31.2724 62.1738 31 62.4484 31 62.7862V66.3871C31 66.7256 31.2724 66.9995 31.6088 66.9995H34.2524C34.5888 66.9995 34.8612 66.7256 34.8612 66.3871C34.8612 66.0493 34.5888 65.7747 34.2524 65.7747H32.2176V63.3986H43.7641V65.7747H38.1941C37.8576 65.7747 37.5853 66.0487 37.5853 66.3871C37.5853 66.725 37.8576 66.9995 38.1941 66.9995H44.3729C44.7094 66.9995 44.9818 66.7256 44.9818 66.3871V62.7862C44.9818 62.4478 44.7094 62.1738 44.3729 62.1738Z" fill="#CCCCCC"/>
<path d="M66.8218 59.8386L61.6182 54.6042C61.3806 54.3651 60.9953 54.3651 60.7571 54.6042L60.4606 54.9024L58.5829 53.0143C61.6394 48.8934 62.0624 43.2465 59.4971 38.6824C59.3318 38.3878 58.96 38.2842 58.6676 38.4511C58.3747 38.6173 58.2718 38.9913 58.4371 39.2853C60.8771 43.6264 60.3353 49.0478 57.1835 52.8197C57.1729 52.8321 57.1629 52.8445 57.1524 52.857C57.1118 52.9055 57.07 52.9534 57.0288 53.0007C57.01 53.0226 56.9912 53.0439 56.9718 53.0658C56.9341 53.1084 56.8959 53.1516 56.8571 53.1936C56.8318 53.2214 56.8059 53.2492 56.78 53.277C56.7441 53.3155 56.7088 53.354 56.6724 53.3918C56.6447 53.4208 56.6165 53.4498 56.5882 53.4788C56.5547 53.5131 56.5218 53.5474 56.4882 53.5818C56.3441 53.7267 56.1971 53.8669 56.0471 54.003C56.0394 54.0095 56.0324 54.016 56.0247 54.0225C53.7753 56.0543 50.9347 57.0702 48.0929 57.0696C45.0529 57.0696 42.0124 55.9064 39.6982 53.5812C37.4559 51.3281 36.2212 48.3331 36.2212 45.147C36.2212 41.9608 37.4559 38.9658 39.6982 36.7128C44.3271 32.0617 51.8588 32.0617 56.4882 36.7128C56.7265 36.9518 57.1118 36.9518 57.3494 36.7122C57.5871 36.4731 57.5871 36.085 57.3488 35.846C52.2453 30.718 43.9412 30.718 38.8382 35.846C36.3659 38.3304 35.0041 41.6331 35.0041 45.1464C35.0041 46.8202 35.3135 48.4455 35.9047 49.9578H31.6088C31.2724 49.9584 31 50.2323 31 50.5702V54.1711C31 54.5095 31.2724 54.7834 31.6088 54.7834H39.1871C39.6541 55.2201 40.1453 55.6159 40.6565 55.9709H31.6088C31.2724 55.9715 31 56.2454 31 56.5839V60.1847C31 60.5232 31.2724 60.7971 31.6088 60.7971H53.4553C53.7918 60.7971 54.0641 60.5232 54.0641 60.1847V56.8519C54.7135 56.5182 55.3406 56.1259 55.9382 55.6763L57.8147 57.5637L57.5182 57.8619C57.4041 57.9767 57.34 58.1323 57.34 58.295C57.34 58.4577 57.4041 58.6133 57.5182 58.7281L62.7224 63.9625C62.8365 64.0773 62.9912 64.1418 63.1529 64.1418C63.3147 64.1418 63.4694 64.0773 63.5835 63.9625L66.8224 60.7048C67.0594 60.4652 67.0594 60.0777 66.8218 59.8386ZM32.2176 53.5593V51.1831H36.4576C36.8912 52.0245 37.4171 52.8209 38.0312 53.5593H32.2176ZM52.8465 59.5724H32.2176V57.1962H42.5312C42.6088 57.1962 42.6829 57.1809 42.7518 57.1542C44.4465 57.9133 46.27 58.2938 48.0935 58.2938C49.7076 58.2938 51.3218 57.9956 52.8465 57.401V59.5724ZM56.8824 54.8947C56.9441 54.8379 57.0053 54.7805 57.0665 54.7231C57.0812 54.7095 57.0959 54.6959 57.1106 54.6817C57.1912 54.6047 57.2712 54.5266 57.35 54.4474C57.3812 54.416 57.4112 54.3841 57.4418 54.3527C57.4794 54.3142 57.5171 54.2764 57.5535 54.2373C57.59 54.1989 57.6265 54.1598 57.6624 54.1208C57.6935 54.087 57.7247 54.0539 57.7553 54.0202C57.7718 54.0018 57.7894 53.9835 57.8059 53.9652L59.5994 55.7686L58.6753 56.6981L56.8824 54.8947ZM63.1524 62.6632L58.8094 58.295L59.1041 57.9985C59.1047 57.998 59.1053 57.9974 59.1059 57.9968L60.8906 56.2017C60.8912 56.2011 60.8918 56.2005 60.8924 56.1999L61.1871 55.9035L65.53 60.2717L63.1524 62.6632Z" fill="#CCCCCC"/>
</g>
<defs>
<clipPath id="clip0_20536_2144">
<rect width="36" height="35" fill="white" transform="translate(31 32)"/>
</clipPath>
</defs>
</svg>
