<svg width="80" height="81" viewBox="0 0 80 81" fill="none" xmlns="http://www.w3.org/2000/svg">
<g clip-path="url(#clip0_125_594)">
<path d="M60.7508 39.5657L31.4175 19.5657C31.0082 19.2883 30.4802 19.2577 30.0428 19.4883C29.6068 19.719 29.3335 20.1723 29.3335 20.667V60.667C29.3335 61.1617 29.6068 61.615 30.0442 61.8457C30.2388 61.9497 30.4535 62.0003 30.6668 62.0003C30.9295 62.0003 31.1922 61.9217 31.4175 61.7683L60.7508 41.7683C61.1148 41.5203 61.3335 41.1083 61.3335 40.667C61.3335 40.2257 61.1148 39.8137 60.7508 39.5657ZM32.0002 58.143V23.191L57.6335 40.667L32.0002 58.143Z" fill="white"/>
<path d="M40 0.667114C17.944 0.667114 0 18.6111 0 40.6671C0 62.7231 17.944 80.6671 40 80.6671C62.056 80.6671 80 62.7231 80 40.6671C80 18.6111 62.056 0.667114 40 0.667114ZM40 78.0005C19.4147 78.0005 2.66667 61.2524 2.66667 40.6671C2.66667 20.0818 19.4147 3.33378 40 3.33378C60.5853 3.33378 77.3333 20.0818 77.3333 40.6671C77.3333 61.2524 60.5853 78.0005 40 78.0005Z" fill="white"/>
</g>
<defs>
<clipPath id="clip0_125_594">
<rect width="80" height="80" fill="white" transform="translate(0 0.667114)"/>
</clipPath>
</defs>
</svg>
