<svg width="98" height="98" viewBox="0 0 98 98" fill="none" xmlns="http://www.w3.org/2000/svg">
<path d="M72.9227 7.56475L96.8453 49L72.9226 90.4353L25.0774 90.4353L1.15471 49L25.0774 7.56475L72.9227 7.56475Z" stroke="#CCCCCC" stroke-width="2"/>
<g clip-path="url(#clip0_20536_2175)" filter="url(#filter0_d_20536_2175)">
<path d="M47.9999 39.666C42.8535 39.666 38.6665 43.8524 38.6665 48.9994C38.6665 54.1458 42.8529 58.3328 47.9999 58.3328C53.1469 58.3328 57.3333 54.1458 57.3333 48.9994C57.3333 43.853 53.1463 39.666 47.9999 39.666ZM47.9999 56.9992C43.5888 56.9992 40 53.4105 40 48.9994C40 44.5883 43.5888 40.9995 47.9999 40.9995C52.411 40.9995 55.9997 44.5883 55.9997 48.9994C55.9997 53.4105 52.411 56.9992 47.9999 56.9992Z" fill="#D1D1D6"/>
<path d="M64.1459 44.9998H62.8006C62.4571 43.7251 61.9524 42.5051 61.2942 41.3616L62.2448 40.411C62.5948 40.061 62.7877 39.5952 62.7877 39.1005C62.7877 38.6052 62.5948 38.1399 62.2448 37.7893L59.2095 34.7541C58.5095 34.0547 57.289 34.0535 56.5878 34.7541L55.6372 35.7046C54.4931 35.0464 53.2737 34.5417 52.0002 34.1988V32.8535C51.9996 31.8312 51.1685 31 50.1461 31H45.8527C44.8309 31 43.9998 31.8312 43.9998 32.8535V34.1988C42.7257 34.5423 41.5063 35.047 40.3616 35.7052L39.411 34.7546C38.7104 34.0535 37.4893 34.0547 36.7893 34.7546L33.7541 37.7899C33.4041 38.1399 33.2117 38.6058 33.2117 39.101C33.2117 39.5957 33.4047 40.061 33.7541 40.4116L34.7046 41.3622C34.0464 42.5051 33.5411 43.7251 33.1988 44.9998H31.8535C30.8312 44.9998 30 45.8309 30 46.8533V51.1461C30 52.1685 30.8312 52.9996 31.8535 52.9996H33.1988C33.5423 54.2737 34.047 55.4931 34.7052 56.6378L33.7546 57.5884C33.4047 57.9384 33.2117 58.4043 33.2117 58.899C33.2117 59.3942 33.4047 59.8595 33.7546 60.2101L36.7899 63.2454C37.4899 63.9459 38.711 63.9465 39.4116 63.2454L40.3622 62.2948C41.5069 62.953 42.7263 63.4583 44.0004 63.8012V65.1465C44.0004 66.1682 44.8315 67 45.8539 67H50.1467C51.1685 67 52.0002 66.1688 52.0002 65.1465V63.8012C53.2743 63.4577 54.4937 62.953 55.6384 62.2948L56.589 63.2454C57.2901 63.9465 58.5101 63.9453 59.2107 63.2454L62.2459 60.2101C62.5959 59.8601 62.7889 59.3942 62.7889 58.899C62.7889 58.4043 62.5959 57.939 62.2459 57.5884L61.2954 56.6378C61.9536 55.4931 62.4589 54.2737 62.8018 52.9996H64.1471C65.1688 52.9996 66.0006 52.1685 66.0006 51.1461V46.8527C65.9994 45.8309 65.1682 44.9998 64.1459 44.9998ZM64.6659 51.1461C64.6659 51.4326 64.4324 51.6661 64.1459 51.6661H61.7512L61.6312 52.1814C61.2842 53.6726 60.6989 55.0878 59.8895 56.3884L59.6095 56.8378L61.3024 58.5307C61.506 58.7343 61.506 59.0642 61.3024 59.2666L58.2672 62.3018C58.0642 62.5048 57.7348 62.506 57.5313 62.3018L55.8384 60.6089L55.389 60.8889C54.089 61.6983 52.6737 62.2842 51.182 62.6307L50.6667 62.7507V65.1453C50.6667 65.4318 50.4332 65.6653 50.1467 65.6653H45.8533C45.5668 65.6653 45.3333 65.4318 45.3333 65.1453V62.7507L44.818 62.6307C43.3268 62.2836 41.9116 61.6983 40.611 60.8889L40.1616 60.6089L38.4687 62.3018C38.2646 62.506 37.9346 62.5048 37.7328 62.3018L34.6976 59.2666C34.494 59.0631 34.494 58.7331 34.6976 58.5307L36.3905 56.8378L36.1105 56.3884C35.3011 55.0884 34.7152 53.6732 34.3688 52.1814L34.2488 51.6661H31.8535C31.567 51.6661 31.3335 51.4326 31.3335 51.1461V46.8527C31.3335 46.5662 31.567 46.3327 31.8535 46.3327H34.2482L34.3682 45.8174C34.7152 44.3257 35.3011 42.9104 36.1099 41.6104L36.3899 41.161L34.697 39.4681C34.4935 39.2646 34.4935 38.9346 34.697 38.7322L37.7322 35.697C37.9352 35.494 38.2652 35.4929 38.4681 35.697L40.161 37.3899L40.6104 37.1099C41.9104 36.3005 43.3257 35.7146 44.8174 35.3682L45.3327 35.2482V32.8535C45.3327 32.567 45.5662 32.3335 45.8527 32.3335H50.145C50.432 32.3335 50.6655 32.567 50.6655 32.8535V35.2482L51.1808 35.3682C52.672 35.7158 54.0873 36.3011 55.3878 37.1099L55.8372 37.3899L57.5301 35.697C57.7343 35.4929 58.0642 35.494 58.266 35.697L61.3013 38.7322C61.5048 38.9358 61.5048 39.2657 61.3013 39.4681L59.6083 41.161L59.8883 41.6104C60.6977 42.9098 61.2836 44.3251 61.6301 45.8174L61.7501 46.3327H64.1447C64.4312 46.3327 64.6647 46.5662 64.6647 46.8527V51.1461H64.6659Z" fill="#D1D1D6"/>
<path d="M47.9999 42.333C44.324 42.333 41.3335 45.3235 41.3335 48.9994C41.3335 52.6752 44.324 55.6657 47.9999 55.6657C51.6757 55.6657 54.6662 52.6752 54.6662 48.9994C54.6662 45.3235 51.6757 42.333 47.9999 42.333ZM47.9999 54.3328C45.0593 54.3328 42.6664 51.9405 42.6664 48.9994C42.6664 46.0588 45.0593 43.6659 47.9999 43.6659C50.9404 43.6659 53.3333 46.0582 53.3333 48.9994C53.3333 51.9399 50.9404 54.3328 47.9999 54.3328Z" fill="#D1D1D6"/>
</g>
<defs>
<filter id="filter0_d_20536_2175" x="26" y="31" width="44" height="44" filterUnits="userSpaceOnUse" color-interpolation-filters="sRGB">
<feFlood flood-opacity="0" result="BackgroundImageFix"/>
<feColorMatrix in="SourceAlpha" type="matrix" values="0 0 0 0 0 0 0 0 0 0 0 0 0 0 0 0 0 0 127 0" result="hardAlpha"/>
<feOffset dy="4"/>
<feGaussianBlur stdDeviation="2"/>
<feComposite in2="hardAlpha" operator="out"/>
<feColorMatrix type="matrix" values="0 0 0 0 0 0 0 0 0 0 0 0 0 0 0 0 0 0 0.25 0"/>
<feBlend mode="normal" in2="BackgroundImageFix" result="effect1_dropShadow_20536_2175"/>
<feBlend mode="normal" in="SourceGraphic" in2="effect1_dropShadow_20536_2175" result="shape"/>
</filter>
<clipPath id="clip0_20536_2175">
<rect width="36" height="36" fill="white" transform="translate(30 31)"/>
</clipPath>
</defs>
</svg>
